<?xml version="1.0" encoding="utf-8"?>
<!-- Generator: Adobe Illustrator 26.3.1, SVG Export Plug-In . SVG Version: 6.00 Build 0)  -->
<svg version="1.1" id="Capa_1" xmlns="http://www.w3.org/2000/svg" xmlns:xlink="http://www.w3.org/1999/xlink" x="0px" y="0px"
	 viewBox="0 0 314 373" style="enable-background:new 0 0 314 373;" xml:space="preserve">
<style type="text/css">
	.st0{fill:#216588;}
	.st1{fill:#43C4E3;}
</style>
<g>
	<path class="st0" d="M184.4,328.7c-10.1,10.1-10.1,26.6,0,36.7c5,5,11.7,7.6,18.3,7.6c6.6,0,13.3-2.6,18.3-7.6
		c10.1-10.1,10.1-26.6,0-36.7c-5-5-11.7-7.6-18.3-7.6C196.1,321.1,189.6,323.5,184.4,328.7z"/>
	<path class="st1" d="M219.1,65c-6.8,0-13.5,2.6-18.7,7.8c-10.4,10.4-10.4,27.1,0,37.3c5.2,5.2,12,7.8,18.7,7.8
		c6.6,0,13.5-2.6,18.7-7.8c10.4-10.4,10.4-27.1,0-37.3C232.6,67.6,225.8,65,219.1,65z"/>
	<path class="st0" d="M271.3,235.6c-1,0-1.9,0-2.9,0.1c3.5-11.3,5.3-23.3,5.3-35.8c-0.2-27.7-9.4-53.2-25-73.6
		c-8.3,7.1-18.7,11-29.7,11c-12.3,0-23.8-4.7-32.4-13.5c-7.1-7.1-11.4-16.1-12.8-25.3c-0.5,0-0.8,0-1.3,0c-9.7,0-18.8-3.7-25.8-10.7
		c-2.8-2.8-5-5.8-6.7-9.1c-6.5,0.6-12.9,1.7-19,3.4c-1.2-24.8-21.7-44.5-46.8-44.5c-25.9,0-46.9,21-46.9,46.9
		c0,18.8,11.1,35,27,42.5c-2.8,3.7-5.4,7.6-7.8,11.7c-3.7-1.4-7.7-2.1-11.8-2.1c-18.9,0-34.2,15.3-34.2,34.2
		c0,17.3,12.9,31.7,29.6,33.9c2.5,65.1,56,117.1,121.7,117.1c30.2,0,57.9-11,79.2-29.2c5.9,16.5,21.6,28.4,40.2,28.4
		c23.6,0,42.7-19.1,42.7-42.7S294.9,235.6,271.3,235.6z M105.1,252.5c-0.2,1-0.6,1.8-1.5,2.4c-0.8,0.6-1.8,1-2.8,1H87.3
		c-1,0-1.8-0.3-2.3-1c-0.5-0.6-0.6-1.5-0.5-2.4l17.4-81.3H74.6c-1.1,0-1.9-0.3-2.4-1c-0.5-0.6-0.6-1.5-0.5-2.4L74,157
		c0.2-1.1,0.6-1.9,1.6-2.6c0.8-0.6,1.8-1,2.8-1h74.9c1.1,0,1.9,0.3,2.4,1c0.5,0.6,0.6,1.6,0.5,2.6l-2.3,10.9c-0.2,1-0.6,1.8-1.5,2.4
		c-0.8,0.6-1.8,1-2.8,1h-27.2L105.1,252.5z M226.7,254.6c-0.8,1.1-1.8,1.6-2.9,1.6h-14.3c-1.5,0-2.6-0.2-3.4-0.8
		c-0.6-0.6-1.3-1.1-1.6-1.8l-27.7-39.6l-8.3,38.6c-0.3,1-0.6,1.8-1.5,2.4c-0.8,0.6-1.6,1-2.8,1h-13.1c-1.1,0-1.9-0.3-2.4-1
		c-0.5-0.6-0.6-1.5-0.5-2.4l20.4-95.7c0.3-1,0.6-1.9,1.5-2.6c0.8-0.6,1.6-1,2.8-1H186c1.1,0,1.9,0.3,2.4,1c0.5,0.6,0.6,1.5,0.5,2.6
		l-7.1,33.4l23.5-21.2c1.1,3.2,3.1,6.3,5.7,8.9c1.8,1.8,3.7,3.2,6,4.4l-22.7,21.2l32.4,47.5C227.6,252.5,227.6,253.6,226.7,254.6z
		 M234.7,167.8c-1.8,1.8-4.2,2.8-6.6,2.8s-4.9-1-6.7-2.8c-3.7-3.7-3.7-9.6,0-13.3c1.8-1.8,4.2-2.8,6.7-2.8s4.9,1,6.6,2.8
		C238.4,158.3,238.4,164.1,234.7,167.8z"/>
	<path class="st1" d="M172.6,45.2c-4.4,0-8.8,1.6-12,5c-6.6,6.6-6.6,17.4,0,24c3.2,3.2,7.6,5,12,5s8.8-1.6,12-5
		c6.6-6.6,6.6-17.4,0-24C181.2,46.8,176.8,45.2,172.6,45.2z"/>
	<path class="st1" d="M212.6,0.6c-6,0-11.8,2.3-16.4,6.8c-9.1,9.1-9.1,23.7,0,32.8c4.5,4.5,10.5,6.8,16.4,6.8c6,0,11.8-2.3,16.4-6.8
		c9.1-9.1,9.1-23.7,0-32.8C224.6,2.9,218.6,0.6,212.6,0.6z"/>
	<path class="st1" d="M279.5,85.9c-5.4,0-10.9,2.1-14.9,6.2c-8.3,8.3-8.3,21.6,0,29.8c4.1,4.1,9.6,6.2,14.9,6.2
		c5.4,0,10.9-2.1,14.9-6.2c8.3-8.3,8.3-21.6,0-29.8C290.3,88,284.8,85.9,279.5,85.9z"/>
</g>
</svg>
