<svg width="158" height="65" viewBox="0 0 158 65" fill="none" xmlns="http://www.w3.org/2000/svg">
<path d="M16.8242 40H11.2383V17.5977H2.82031V11.9922H25.2227V17.5977H16.8242V40ZM47.3906 40H28.1914V11.9922H47.3906V17.5977H33.7969V23.2031H42.9961V28.8086H33.7969V34.3945H47.3906V40ZM79.1094 40H73.5234V20C73.5234 19.6094 73.4453 19.2448 73.2891 18.9062C73.1458 18.5677 72.944 18.2747 72.6836 18.0273C72.4362 17.7669 72.1432 17.5651 71.8047 17.4219C71.4661 17.2786 71.1016 17.207 70.7109 17.207C70.3203 17.207 69.9557 17.2786 69.6172 17.4219C69.2786 17.5651 68.9792 17.7669 68.7188 18.0273C68.4714 18.2747 68.276 18.5677 68.1328 18.9062C67.9896 19.2448 67.918 19.6094 67.918 20V40H62.3125V20C62.3125 19.6094 62.2409 19.2448 62.0977 18.9062C61.9544 18.5677 61.7526 18.2747 61.4922 18.0273C61.2448 17.7669 60.9518 17.5651 60.6133 17.4219C60.2747 17.2786 59.9102 17.207 59.5195 17.207C59.1289 17.207 58.7643 17.2786 58.4258 17.4219C58.0872 17.5651 57.7878 17.7669 57.5273 18.0273C57.2799 18.2747 57.0846 18.5677 56.9414 18.9062C56.7982 19.2448 56.7266 19.6094 56.7266 20V40H51.1211V20C51.1211 18.8411 51.3359 17.7539 51.7656 16.7383C52.2083 15.7096 52.8073 14.8177 53.5625 14.0625C54.3307 13.2943 55.2227 12.6953 56.2383 12.2656C57.2669 11.8229 58.3607 11.6016 59.5195 11.6016C60.5612 11.6016 61.5638 11.7904 62.5273 12.168C63.4909 12.5326 64.3568 13.0664 65.125 13.7695C65.8932 13.0664 66.7526 12.5326 67.7031 12.168C68.6667 11.7904 69.6693 11.6016 70.7109 11.6016C71.8698 11.6016 72.957 11.8229 73.9727 12.2656C75.0013 12.6953 75.8932 13.2943 76.6484 14.0625C77.4167 14.8177 78.0156 15.7096 78.4453 16.7383C78.888 17.7539 79.1094 18.8411 79.1094 20V40Z" fill="#28CDF1"/>
<path d="M89.5938 40H83.9883V11.9922H89.5938V25.9961L100.023 11.9922H106.391L97.543 23.8086L106.391 40H100.023L93.8711 28.6719L89.5938 34.3945V40ZM125.473 28.8086V23.2031C125.473 22.4349 125.323 21.7122 125.023 21.0352C124.737 20.3451 124.34 19.7461 123.832 19.2383C123.324 18.7305 122.725 18.3333 122.035 18.0469C121.358 17.7474 120.635 17.5977 119.867 17.5977C119.099 17.5977 118.37 17.7474 117.68 18.0469C117.003 18.3333 116.41 18.7305 115.902 19.2383C115.395 19.7461 114.991 20.3451 114.691 21.0352C114.405 21.7122 114.262 22.4349 114.262 23.2031V28.8086H125.473ZM131.078 40H125.473V34.3945H114.262V40H108.676V23.2031C108.676 21.6536 108.969 20.2018 109.555 18.8477C110.141 17.4805 110.935 16.2891 111.938 15.2734C112.953 14.2578 114.138 13.457 115.492 12.8711C116.859 12.2852 118.318 11.9922 119.867 11.9922C121.417 11.9922 122.868 12.2852 124.223 12.8711C125.59 13.457 126.781 14.2578 127.797 15.2734C128.812 16.2891 129.613 17.4805 130.199 18.8477C130.785 20.2018 131.078 21.6536 131.078 23.2031V40ZM146.84 40H141.254V17.5977H132.836V11.9922H155.238V17.5977H146.84V40Z" fill="#575AA3"/>
<path d="M14.3518 60.096C13.7758 60.096 13.2918 60.064 12.8998 60C12.5078 59.928 12.1878 59.808 11.9398 59.64C11.6918 59.464 11.4998 59.22 11.3638 58.908C11.2358 58.588 11.1478 58.18 11.0998 57.684C11.0518 57.188 11.0278 56.584 11.0278 55.872C11.0278 55.16 11.0518 54.56 11.0998 54.072C11.1478 53.576 11.2358 53.172 11.3638 52.86C11.4998 52.54 11.6918 52.292 11.9398 52.116C12.1878 51.94 12.5078 51.82 12.8998 51.756C13.2918 51.684 13.7758 51.648 14.3518 51.648C14.5758 51.648 14.8038 51.656 15.0358 51.672C15.2758 51.688 15.5038 51.708 15.7198 51.732C15.9358 51.756 16.1238 51.788 16.2838 51.828V52.656C16.0998 52.632 15.9078 52.612 15.7078 52.596C15.5158 52.572 15.3238 52.556 15.1318 52.548C14.9398 52.54 14.7678 52.536 14.6158 52.536C14.1518 52.536 13.7638 52.556 13.4518 52.596C13.1398 52.636 12.8918 52.716 12.7078 52.836C12.5238 52.948 12.3838 53.128 12.2878 53.376C12.1998 53.616 12.1398 53.94 12.1078 54.348C12.0758 54.748 12.0598 55.256 12.0598 55.872C12.0598 56.488 12.0758 57 12.1078 57.408C12.1398 57.808 12.1998 58.132 12.2878 58.38C12.3838 58.62 12.5238 58.8 12.7078 58.92C12.8918 59.032 13.1398 59.108 13.4518 59.148C13.7638 59.188 14.1518 59.208 14.6158 59.208C14.8878 59.208 15.1838 59.196 15.5038 59.172C15.8238 59.148 16.0998 59.12 16.3318 59.088V59.94C16.1638 59.972 15.9638 59.996 15.7318 60.012C15.5078 60.036 15.2758 60.056 15.0358 60.072C14.7958 60.088 14.5678 60.096 14.3518 60.096ZM19.5381 60V51.744H20.5701V59.088H24.4221V60H19.5381ZM27.3152 60V51.744H32.6792V52.632H28.3472V55.38H32.1152V56.28H28.3472V59.112H32.6792V60H27.3152ZM35.0016 60L38.1216 51.744H39.4176L42.5256 60H41.4576L40.6056 57.744H36.8976L36.0456 60H35.0016ZM37.2096 56.844H40.2936L38.7816 52.8H38.7216L37.2096 56.844ZM45.3888 60V51.744H46.4448L50.7288 58.068H50.7768V51.744H51.7728V60H50.7768L46.4328 53.556H46.3848V60H45.3888ZM55.4861 60V51.744H56.5181V60H55.4861ZM60.2397 60V51.744H61.2957L65.5797 58.068H65.6277V51.744H66.6237V60H65.6277L61.2837 53.556H61.2357V60H60.2397ZM73.553 60.096C72.969 60.096 72.473 60.064 72.065 60C71.657 59.928 71.321 59.804 71.057 59.628C70.801 59.452 70.597 59.208 70.445 58.896C70.301 58.576 70.197 58.172 70.133 57.684C70.077 57.188 70.049 56.584 70.049 55.872C70.049 55.16 70.077 54.56 70.133 54.072C70.197 53.576 70.305 53.172 70.457 52.86C70.609 52.54 70.817 52.292 71.081 52.116C71.345 51.94 71.677 51.82 72.077 51.756C72.485 51.684 72.977 51.648 73.553 51.648C73.825 51.648 74.117 51.66 74.429 51.684C74.741 51.708 75.045 51.736 75.341 51.768C75.645 51.8 75.917 51.84 76.157 51.888V52.728C75.901 52.688 75.641 52.656 75.377 52.632C75.113 52.6 74.865 52.576 74.633 52.56C74.409 52.544 74.217 52.536 74.057 52.536C73.561 52.536 73.137 52.548 72.785 52.572C72.441 52.596 72.157 52.66 71.933 52.764C71.709 52.868 71.537 53.04 71.417 53.28C71.297 53.512 71.209 53.836 71.153 54.252C71.105 54.668 71.081 55.208 71.081 55.872C71.081 56.456 71.097 56.948 71.129 57.348C71.161 57.74 71.225 58.06 71.321 58.308C71.425 58.556 71.565 58.748 71.741 58.884C71.925 59.02 72.165 59.112 72.461 59.16C72.765 59.2 73.137 59.22 73.577 59.22C73.745 59.22 73.929 59.216 74.129 59.208C74.329 59.2 74.525 59.188 74.717 59.172C74.909 59.156 75.069 59.14 75.197 59.124V56.436H73.325V55.56H76.193V59.856C75.929 59.904 75.637 59.948 75.317 59.988C75.005 60.02 74.693 60.044 74.381 60.06C74.077 60.084 73.801 60.096 73.553 60.096ZM86.6586 60.096C86.3626 60.096 86.0386 60.088 85.6866 60.072C85.3346 60.056 84.9906 60.036 84.6546 60.012C84.3266 59.988 84.0266 59.96 83.7546 59.928V59.052C84.0426 59.076 84.3426 59.1 84.6546 59.124C84.9746 59.148 85.2826 59.168 85.5786 59.184C85.8826 59.2 86.1386 59.208 86.3466 59.208C86.7706 59.208 87.1106 59.192 87.3666 59.16C87.6226 59.12 87.8386 59.048 88.0146 58.944C88.1346 58.872 88.2226 58.776 88.2786 58.656C88.3346 58.536 88.3666 58.396 88.3746 58.236C88.3906 58.076 88.3986 57.904 88.3986 57.72C88.3986 57.448 88.3906 57.228 88.3746 57.06C88.3586 56.892 88.3146 56.764 88.2426 56.676C88.1786 56.58 88.0706 56.512 87.9186 56.472C87.7666 56.424 87.5626 56.388 87.3066 56.364L85.2546 56.136C84.8706 56.088 84.5626 56.008 84.3306 55.896C84.0986 55.776 83.9226 55.628 83.8026 55.452C83.6906 55.268 83.6146 55.052 83.5746 54.804C83.5346 54.548 83.5146 54.264 83.5146 53.952C83.5146 53.448 83.5786 53.044 83.7066 52.74C83.8426 52.436 84.0386 52.204 84.2946 52.044C84.5506 51.884 84.8586 51.78 85.2186 51.732C85.5866 51.676 86.0066 51.648 86.4786 51.648C86.7826 51.648 87.0946 51.656 87.4146 51.672C87.7346 51.688 88.0346 51.712 88.3146 51.744C88.6026 51.768 88.8386 51.8 89.0226 51.84V52.692C88.8146 52.66 88.5746 52.632 88.3026 52.608C88.0306 52.584 87.7506 52.568 87.4626 52.56C87.1826 52.544 86.9146 52.536 86.6586 52.536C86.2186 52.536 85.8626 52.556 85.5906 52.596C85.3186 52.636 85.1026 52.708 84.9426 52.812C84.7666 52.916 84.6546 53.064 84.6066 53.256C84.5666 53.44 84.5466 53.664 84.5466 53.928C84.5466 54.24 84.5666 54.484 84.6066 54.66C84.6546 54.828 84.7506 54.948 84.8946 55.02C85.0466 55.084 85.2706 55.132 85.5666 55.164L87.5706 55.392C87.8586 55.416 88.1106 55.456 88.3266 55.512C88.5506 55.56 88.7426 55.644 88.9026 55.764C89.0626 55.884 89.1826 56.056 89.2626 56.28C89.3106 56.392 89.3466 56.516 89.3706 56.652C89.3946 56.788 89.4106 56.94 89.4186 57.108C89.4346 57.268 89.4426 57.448 89.4426 57.648C89.4426 58.104 89.3986 58.484 89.3106 58.788C89.2226 59.084 89.0986 59.32 88.9386 59.496C88.7786 59.672 88.5826 59.804 88.3506 59.892C88.1186 59.98 87.8586 60.036 87.5706 60.06C87.2906 60.084 86.9866 60.096 86.6586 60.096ZM92.7658 60V51.744H98.1298V52.632H93.7978V55.38H97.5658V56.28H93.7978V59.112H98.1298V60H92.7658ZM101.316 60V51.744H105.108C105.628 51.744 106.04 51.808 106.344 51.936C106.656 52.056 106.884 52.232 107.028 52.464C107.18 52.688 107.28 52.952 107.328 53.256C107.376 53.56 107.4 53.884 107.4 54.228C107.4 54.524 107.372 54.832 107.316 55.152C107.268 55.464 107.152 55.748 106.968 56.004C106.792 56.26 106.512 56.448 106.128 56.568L107.52 60H106.416L105.048 56.532L105.336 56.676C105.28 56.692 105.212 56.704 105.132 56.712C105.052 56.72 104.944 56.724 104.808 56.724H102.348V60H101.316ZM102.348 55.824H104.664C105.064 55.824 105.376 55.792 105.6 55.728C105.832 55.664 106 55.564 106.104 55.428C106.216 55.292 106.288 55.128 106.32 54.936C106.352 54.736 106.368 54.5 106.368 54.228C106.368 53.956 106.352 53.724 106.32 53.532C106.296 53.332 106.232 53.168 106.128 53.04C106.032 52.904 105.872 52.804 105.648 52.74C105.432 52.668 105.132 52.632 104.748 52.632H102.348V55.824ZM112.87 60L109.894 51.744H110.974L113.506 58.8H113.566L116.098 51.744H117.142L114.166 60H112.87ZM120.023 60V51.744H121.055V60H120.023ZM127.812 60.096C127.236 60.096 126.752 60.064 126.36 60C125.968 59.928 125.648 59.808 125.4 59.64C125.152 59.464 124.96 59.22 124.824 58.908C124.696 58.588 124.608 58.18 124.56 57.684C124.512 57.188 124.488 56.584 124.488 55.872C124.488 55.16 124.512 54.56 124.56 54.072C124.608 53.576 124.696 53.172 124.824 52.86C124.96 52.54 125.152 52.292 125.4 52.116C125.648 51.94 125.968 51.82 126.36 51.756C126.752 51.684 127.236 51.648 127.812 51.648C128.036 51.648 128.264 51.656 128.496 51.672C128.736 51.688 128.964 51.708 129.18 51.732C129.396 51.756 129.584 51.788 129.744 51.828V52.656C129.56 52.632 129.368 52.612 129.168 52.596C128.976 52.572 128.784 52.556 128.592 52.548C128.4 52.54 128.228 52.536 128.076 52.536C127.612 52.536 127.224 52.556 126.912 52.596C126.6 52.636 126.352 52.716 126.168 52.836C125.984 52.948 125.844 53.128 125.748 53.376C125.66 53.616 125.6 53.94 125.568 54.348C125.536 54.748 125.52 55.256 125.52 55.872C125.52 56.488 125.536 57 125.568 57.408C125.6 57.808 125.66 58.132 125.748 58.38C125.844 58.62 125.984 58.8 126.168 58.92C126.352 59.032 126.6 59.108 126.912 59.148C127.224 59.188 127.612 59.208 128.076 59.208C128.348 59.208 128.644 59.196 128.964 59.172C129.284 59.148 129.56 59.12 129.792 59.088V59.94C129.624 59.972 129.424 59.996 129.192 60.012C128.968 60.036 128.736 60.056 128.496 60.072C128.256 60.088 128.028 60.096 127.812 60.096ZM132.999 60V51.744H138.363V52.632H134.031V55.38H137.799V56.28H134.031V59.112H138.363V60H132.999ZM144.297 60.096C144.001 60.096 143.677 60.088 143.325 60.072C142.973 60.056 142.629 60.036 142.293 60.012C141.965 59.988 141.665 59.96 141.393 59.928V59.052C141.681 59.076 141.981 59.1 142.293 59.124C142.613 59.148 142.921 59.168 143.217 59.184C143.521 59.2 143.777 59.208 143.985 59.208C144.409 59.208 144.749 59.192 145.005 59.16C145.261 59.12 145.477 59.048 145.653 58.944C145.773 58.872 145.861 58.776 145.917 58.656C145.973 58.536 146.005 58.396 146.013 58.236C146.029 58.076 146.037 57.904 146.037 57.72C146.037 57.448 146.029 57.228 146.013 57.06C145.997 56.892 145.953 56.764 145.881 56.676C145.817 56.58 145.709 56.512 145.557 56.472C145.405 56.424 145.201 56.388 144.945 56.364L142.893 56.136C142.509 56.088 142.201 56.008 141.969 55.896C141.737 55.776 141.561 55.628 141.441 55.452C141.329 55.268 141.253 55.052 141.213 54.804C141.173 54.548 141.153 54.264 141.153 53.952C141.153 53.448 141.217 53.044 141.345 52.74C141.481 52.436 141.677 52.204 141.933 52.044C142.189 51.884 142.497 51.78 142.857 51.732C143.225 51.676 143.645 51.648 144.117 51.648C144.421 51.648 144.733 51.656 145.053 51.672C145.373 51.688 145.673 51.712 145.953 51.744C146.241 51.768 146.477 51.8 146.661 51.84V52.692C146.453 52.66 146.213 52.632 145.941 52.608C145.669 52.584 145.389 52.568 145.101 52.56C144.821 52.544 144.553 52.536 144.297 52.536C143.857 52.536 143.501 52.556 143.229 52.596C142.957 52.636 142.741 52.708 142.581 52.812C142.405 52.916 142.293 53.064 142.245 53.256C142.205 53.44 142.185 53.664 142.185 53.928C142.185 54.24 142.205 54.484 142.245 54.66C142.293 54.828 142.389 54.948 142.533 55.02C142.685 55.084 142.909 55.132 143.205 55.164L145.209 55.392C145.497 55.416 145.749 55.456 145.965 55.512C146.189 55.56 146.381 55.644 146.541 55.764C146.701 55.884 146.821 56.056 146.901 56.28C146.949 56.392 146.985 56.516 147.009 56.652C147.033 56.788 147.049 56.94 147.057 57.108C147.073 57.268 147.081 57.448 147.081 57.648C147.081 58.104 147.037 58.484 146.949 58.788C146.861 59.084 146.737 59.32 146.577 59.496C146.417 59.672 146.221 59.804 145.989 59.892C145.757 59.98 145.497 60.036 145.209 60.06C144.929 60.084 144.625 60.096 144.297 60.096Z" fill="#575AA3"/>
</svg>
