<?xml version="1.0" encoding="utf-8"?>
<!-- Generator: Adobe Illustrator 26.3.1, SVG Export Plug-In . SVG Version: 6.00 Build 0)  -->
<svg version="1.1" id="Capa_1" xmlns="http://www.w3.org/2000/svg" xmlns:xlink="http://www.w3.org/1999/xlink" x="0px" y="0px"
	 viewBox="0 0 654 374" style="enable-background:new 0 0 654 374;" xml:space="preserve">
<style type="text/css">
	.st0{fill:#216588;}
	.st1{fill:#43C4E3;}
	.st2{fill:none;}
</style>
<path class="st0" d="M369.8,157.9c-5.8-3.6-12.5-5.3-20.4-5.3c-8.2,0-15.4,1.9-20.4,5.5c-6,3.4-11.5,8.2-16.1,13.9
	c-1.9-6-5.5-10.8-11.1-14.2c-5.3-3.4-12.3-5-20.7-5c-5.3,0-9.9,0.7-13.7,1.9c-3.8,1.2-7.4,3.1-10.3,5.3c-3.1,2.2-6,4.8-8.6,7.4
	l1.4-7.4c0.2-1.4,0-2.6-0.7-3.6c-0.7-1-1.9-1.4-3.4-1.4h-17.1c-1.4,0-2.9,0.5-4.1,1.4c-1.4,1-2.2,2.2-2.4,3.6l-21.9,102.6
	c-0.2,1.4,0,2.6,0.7,3.6s1.9,1.4,3.4,1.4h18.3c1.4,0,2.6-0.5,3.8-1.4c1.2-1,1.9-2.2,2.2-3.6l13-60.8c1.4-6.5,3.6-11.5,6.7-15.4
	c3.1-3.8,6.5-6.5,10.3-8.2c3.6-1.7,7.2-2.4,10.3-2.4c3.8,0,7,0.7,9.6,2.4c2.6,1.7,4.3,4.3,5.3,8.2c1,3.8,0.7,9.1-0.5,15.6l-13,60.8
	c-0.2,1.4,0,2.6,1,3.6c0.7,1,1.9,1.4,3.4,1.4h17.8c1.4,0,2.6-0.5,3.8-1.4c1.2-1,1.9-2.2,2.2-3.6l13-60.8c1.4-6.5,3.6-11.8,6.7-15.6
	c3.1-3.8,6.7-6.5,10.3-8.2c3.6-1.7,7.2-2.4,10.6-2.4c3.6,0,7,0.7,9.6,2.4c2.6,1.7,4.3,4.3,5.3,8.2c0.7,3.8-0.2,10.3-1.7,16.8
	l-5,21.9c-0.2,1.4,0,2.6,0.7,3.6c0.7,1,1.9,1.4,3.4,1.4l19,0.2c1.4,0,2.6-0.5,3.8-1.4c1.2-1,1.9-2.4,2.2-3.6
	c2.6-10.8,9.6-39.2,5.3-51.7C379.5,166.5,375.6,161.2,369.8,157.9z"/>
<path class="st1" d="M480.9,373.4c-7.4,0-13.9-1.2-19.2-3.8c-5.3-2.6-9.4-6-12.3-10.8c-2.9-4.6-4.8-10.1-5.8-16.3
	c-1-6.2-0.7-13.2,0.5-20.7c0.5-2.6,1.2-5,1.4-7c0.5-2.2,1-4.6,1.4-7c1.9-7.2,4.3-13.9,7.4-20.2c3.1-6.2,7-11.8,11.5-16.3
	c4.6-4.8,9.9-8.4,16.1-11.1c6.2-2.6,13.2-3.8,21.1-3.8c8.9,0,15.9,1.4,20.7,4.3c4.8,2.9,8.4,6.2,11.1,10.3l1.4-7.2
	c0.2-1.4,1-2.6,2.2-3.6c1.2-1,2.4-1.4,3.8-1.4h17.3c1.4,0,2.6,0.5,3.4,1.4c1,1,1.2,2.2,1,3.6l-21.9,102.6c-0.2,1.4-1,2.6-2.2,3.6
	s-2.4,1.4-3.8,1.4h-17.3c-1.7,0-2.9-0.5-3.6-1.4c-0.7-1-1-2.2-0.7-3.6l1.7-8.2c-4.3,4.6-9.1,8.2-14.4,11.1
	C496.7,372,489.8,373.4,480.9,373.4z M490.7,350.1c6,0,11.3-1.4,15.6-4.1c4.3-2.6,7.9-6.2,10.6-10.6c2.6-4.3,4.6-8.6,5.8-13.2
	c0.7-2.6,1.4-5.3,1.9-8.4c0.5-2.9,1.2-5.8,1.4-8.4c1-4.3,1-8.4,0.2-12.5c-0.7-4.1-2.6-7.2-5.5-9.9c-2.9-2.6-7.4-3.8-13.5-3.8
	c-5.8,0-10.6,1.4-14.4,4.1c-4.1,2.6-7.2,6.2-9.9,10.6c-2.6,4.3-4.8,9.1-6.2,14.4c-0.5,2.2-1.2,4.3-1.4,6.5c-0.5,2.2-0.7,4.3-1.2,6.5
	c-0.7,5.3-1,10.1-0.5,14.4c0.5,4.3,1.9,7.9,4.6,10.6S484.9,350.1,490.7,350.1z"/>
<path class="st1" d="M611.6,371.2c-9.9,0-17.5-1.4-23.1-4.6c-5.5-3.1-9.1-7.7-10.6-13.7c-1.7-6-1.4-13.5,0.5-22.6l10.6-49.5h-17.3
	c-1.4,0-2.6-0.5-3.4-1.4s-1-2.4-0.7-3.8l2.6-12.5c0.2-1.4,1-2.6,2.4-3.6c1.2-1,2.6-1.4,4.3-1.4H594l7.9-36c0.2-1.4,1-2.6,2.2-3.6
	c1.2-1,2.4-1.4,3.8-1.4h17.5c1.7,0,2.9,0.5,3.6,1.4c0.7,1,1,2.2,0.7,3.6l-7.9,36h27.2c1.4,0,2.6,0.5,3.4,1.4s1,2.2,0.7,3.6
	l-2.6,12.5c-0.2,1.7-1,2.9-2.4,3.8c-1.2,1-2.6,1.4-4.1,1.4h-27.2l-10.1,47.3c-1,3.8-1.4,7.2-1.4,10.1c0,2.9,0.7,5,2.4,6.5
	c1.7,1.4,4.3,2.4,8.4,2.4h15.6c1.7,0,2.6,0.5,3.4,1.4c0.7,1,1,2.2,0.7,3.6l-2.9,13.5c-0.2,1.4-1,2.6-2.2,3.6c-1.2,1-2.6,1.4-4.1,1.4
	h-15.1V371.2z"/>
<path class="st1" d="M435,244.6c-3.8,0-7.2-1.5-9.9-4.1c-5.4-5.4-5.4-14.3,0-19.7c2.6-2.6,6.1-4.1,9.9-4.1s7.2,1.5,9.9,4.1
	c5.4,5.4,5.4,14.3,0,19.7C442.1,243.1,438.6,244.6,435,244.6z"/>
<g>
	<path class="st1" d="M401.4,242.7l-34.7,31.4l6.7-31c0.2-1.4,0-2.9-0.7-3.8c-0.7-1-1.9-1.4-3.6-1.4h-19.5c-1.7,0-2.9,0.5-4.1,1.4
		c-1.2,1-1.9,2.2-2.2,3.8l-26.2,123c-0.2,1.4,0,2.6,0.7,3.6c0.7,1,1.9,1.4,3.6,1.4h19c1.7,0,2.9-0.5,4.1-1.4c1.2-1,1.9-2.2,2.2-3.6
		L359,309l41.1,58.6c0.5,1,1.2,1.7,2.4,2.6c1,0.7,2.6,1.2,5,1.2h21.1c1.7,0,3.1-1,4.3-2.4c1.4-1.4,1.2-3.1,0-5l-48.3-70.2l33.9-31.5
		c-3.2-1.7-6.2-3.8-8.9-6.5C405.9,252.1,403.1,247.6,401.4,242.7z"/>
	<path class="st2" d="M432.3,219.1h10.4c-2.3-1.6-5.1-2.4-7.8-2.4c-3.6,0-7.2,1.4-9.9,4.1c-0.6,0.6-1.1,1.2-1.5,1.8
		c0.7-0.6,1.8-1.2,3-2.1C428,219.6,429.9,219.1,432.3,219.1z"/>
	<path class="st2" d="M444.8,240.5c1.7-1.7,2.9-3.7,3.5-5.8l-10.3,9.6C440.6,243.6,442.9,242.4,444.8,240.5z"/>
</g>
<path class="st0" d="M23.6,267.9c-1.4,0-2.6-0.5-3.4-1.4c-0.7-1-1-2.2-0.7-3.6l25.7-120.4H4.9c-1.7,0-2.9-0.5-3.6-1.4
	c-0.7-1-1-2.2-0.7-3.6l3.4-16.1c0.2-1.7,1-2.9,2.4-3.8c1.2-1,2.6-1.4,4.1-1.4h111c1.7,0,2.9,0.5,3.6,1.4s1,2.4,0.7,3.8l-3.4,16.1
	c-0.2,1.4-1,2.6-2.2,3.6c-1.2,1-2.6,1.4-4.1,1.4H75.7L50,262.9c-0.2,1.4-1,2.6-2.2,3.6s-2.6,1.4-4.1,1.4H23.6z"/>
<path class="st0" d="M135.8,270.3c-10.6,0-19.5-2.2-26.4-6.2c-7-4.3-12-10.3-14.7-18.3c-2.6-7.9-3.1-17.5-1.2-28.8
	c0.2-1.4,0.7-3.4,1.2-5.5c0.5-2.2,1-4.1,1.2-5.3c2.9-11.1,7.4-20.4,13.5-28.4c6-7.9,13.5-13.9,22.3-18.3c8.9-4.3,18.5-6.5,29.1-6.5
	c11.8,0,21.1,2.4,27.9,7.2s11.3,11.5,13.7,20.2c2.2,8.6,2.4,18.5,0,30l-1.2,4.6c-0.2,1.4-1,2.6-2.4,3.6c-1.2,1-2.6,1.4-4.3,1.4
	h-72.3c-0.2,1-0.2,1.4-0.5,1.7c-0.7,5-0.7,9.9,0.2,13.9c1,4.3,2.9,7.7,5.8,10.3c2.9,2.6,7,3.8,11.8,3.8c4.1,0,7.7-0.7,10.6-1.9
	c3.1-1.2,5.5-2.6,7.4-4.3c1.9-1.7,3.4-2.9,4.6-3.8c1.7-1.7,3.1-2.9,3.8-3.1c1-0.5,2.2-0.5,3.6-0.5h19c1.2,0,2.4,0.5,3.1,1.2
	c0.7,1,1,1.9,0.7,3.4c-0.7,2.4-2.6,5-5.5,8.4c-2.9,3.4-6.7,6.5-11.8,9.9c-5,3.1-10.8,5.8-17.5,7.9
	C151.4,269.1,144,270.3,135.8,270.3z M126.4,201.6h48.1l0.2-0.7c1.4-5.8,1.7-10.6,0.5-14.9c-1.2-4.3-3.1-7.7-6.2-10.1
	c-3.1-2.4-7.2-3.6-12.3-3.6c-5,0-9.6,1.2-13.7,3.6c-4.1,2.4-7.4,5.8-10.3,10.1c-2.6,4.3-4.8,9.1-6,14.9L126.4,201.6z"/>
<path class="st1" d="M396.3,21.6c-8.6,0-17.5,3.4-24.3,10.1c-13.5,13.5-13.5,35.1,0,48.5c6.7,6.7,15.4,10.1,24.3,10.1
	c8.7,0,17.5-3.4,24.3-10.1c13.5-13.5,13.5-35.1,0-48.5C413.8,25,405.2,21.6,396.3,21.6z"/>
<path class="st1" d="M336.9,137.9c13.9,0,25.2-11.3,25.2-25.2c0-13.9-11.3-25.2-25.2-25.2c-13.9,0-25.2,11.3-25.2,25.2
	C311.7,126.6,323,137.9,336.9,137.9z"/>
<path class="st1" d="M495.3,210.5c17.3,0,31.2-14,31.2-31.2c0-17.3-14-31.2-31.2-31.2c-17.3,0-31.2,14-31.2,31.2
	C464,196.5,478,210.5,495.3,210.5z"/>
<g>
	<path class="st1" d="M405.9,116.8c-14.8,0-27.7,8.2-34.4,20.4c2.9,1,5.6,2.3,8.2,3.6c9.4,5.8,16.3,14.4,20.2,26
		c2.7,7.8,3,17.5,1.9,28.1c1.3,0.1,2.7,0.2,4.1,0.2c21.6,0,39.2-17.5,39.2-39.2C445.1,134.3,427.5,116.8,405.9,116.8z"/>
</g>
</svg>
